<svg xmlns="http://www.w3.org/2000/svg" width="102.67" height="28.41" viewBox="0 0 27.187 7.521">
  <g transform="translate(-56.803 -156.283)">
    <path d="M60.249 162.159q-.613.14-1.141.14-.52 0-.908-.132-.38-.14-.706-.443-.691-.644-.691-2.134 0-.737.202-1.273.202-.543.55-.838.652-.551 1.576-.551.582 0 1.172.17l-.179.8q-.442-.085-.823-.085-.628 0-.993.396-.365.388-.365 1.373 0 .978.373 1.39.372.403 1.032.403.458 0 .83-.062zM63.268 161.833q-.598.465-1.273.465-.668 0-.916-.341-.24-.35-.24-.986v-2.755h1.086v2.561q0 .31.093.474.093.163.458.163.373 0 .69-.241v-2.957h1.087v4.082h-.893zM66.155 161.802q0 1.901-2.002 2.002l-.086-.838q.551-.093.776-.365.233-.272.233-.87v-3.476l1.079-.109zm-1.195-4.866q0-.272.186-.458.194-.194.466-.194.271 0 .458.194.194.186.194.458 0 .264-.194.465-.187.194-.458.194-.272 0-.466-.194-.186-.194-.186-.465zM68.056 162.197h-1.086v-3.973l1.086-.093zm-1.187-5.254q0-.264.186-.45.186-.187.45-.187.264 0 .45.187.186.186.186.45 0 .256-.186.45-.186.194-.45.194-.264 0-.45-.186-.186-.194-.186-.458z" style="font-weight:700;font-size:7.761px;font-family:Rambla;fill:#79da66"/>
    <path d="M70.633 158.286l1.001-.07.567 3.089.427-3.089h1.063l-.893 3.981h-1.164l-.481-2.895-.489 2.895h-1.21l-.823-3.981h1.063l.404 3.112zM77.758 162.065q-.396.218-.87.218-.465 0-.69-.357-.45.372-1.056.372-.605 0-.916-.302-.31-.31-.31-.838 0-.35.147-.598.148-.248.38-.365.427-.202.885-.202.466 0 .745.024v-.38q0-.404-.163-.52-.163-.117-.559-.117-.388 0-.877.163l-.225-.683q.287-.17.698-.256.42-.093.714-.093.792 0 1.126.341.341.334.341 1.149v1.63q0 .217.194.217.101 0 .287-.047zm-2.32-.489q.326 0 .636-.202v-.815q-.217-.015-.38-.015-.769 0-.769.497 0 .535.512.535zM80.102 159.015q-.637 0-.893.365v2.817h-1.087v-3.981h.9l.086.504q.45-.59 1.149-.59.194 0 .357.039l-.179.893q-.17-.047-.333-.047zM81.786 160.319q.015 1.164 1.024 1.164.473 0 .939-.178l.186.737q-.597.256-1.327.256-1.839 0-1.839-2.165 0-.854.458-1.42.458-.567 1.319-.567.69 0 1.063.373.38.365.38 1.024 0 .388-.1.776zm1.335-.59v-.046q0-.769-.544-.769-.652 0-.784.815z" style="font-weight:700;font-size:7.761px;font-family:Rambla;fill:#008aff"/>
  </g>
</svg>