<svg xmlns="http://www.w3.org/2000/svg" width="35.789" height="36.885" viewBox="0 0 9.469 9.765">
  <g transform="translate(-64.086 -145.109)">
    <g transform="matrix(0 -.50242 .49577 0 -14.74 185.863)" fill="#fff" stroke-width=".265" stroke-linecap="round" stroke-linejoin="bevel">
      <path d="M70.415 163.414c-.68-.003-.996.171-1.079-.07l.063-2.337 1.079-.109zm-1.132-3.726c0-.181.062-.334.186-.458.13-.13.285-.194.466-.194.181 0 .334.065.458.194.13.124.194.277.194.458 0 .176-.065.331-.194.466-.124.129-.277.194-.458.194-.181 0-.336-.065-.466-.194-.124-.13-.186-.285-.186-.466z" style="font-weight:700;font-size:7.761px;font-family:Rambla;fill:#79da66"/>
      <path d="M73.167 163.62h-1.087l.032-2.707 1.087-.093zm-1.156-3.988c0-.176.062-.326.186-.45.124-.124.274-.186.45-.186.176 0 .326.062.45.186.124.124.187.274.187.45 0 .171-.062.321-.187.45-.124.13-.274.194-.45.194-.176 0-.326-.062-.45-.186-.124-.13-.186-.282-.186-.458z" style="font-weight:700;font-size:7.761px;font-family:Rambla;fill:#79da66"/>
    </g>
    <g transform="translate(-.443 -.158)">
      <path d="M70.94 148.34l1.002-.07.566 3.09.427-3.09h1.063l-.892 3.982h-1.164l-.481-2.895-.49 2.895h-1.21l-.823-3.982h1.063l.404 3.112z" style="font-weight:700;font-size:7.761px;font-family:Rambla;fill:#79da66"/>
      <path d="M72.623 154.778q-1.115.254-2.074.254-.945 0-1.651-.24-.691-.254-1.284-.804-1.256-1.171-1.256-3.88 0-1.341.367-2.315.367-.988 1.002-1.524 1.185-1.002 2.864-1.002 1.059 0 2.131.31l-.324 1.454q-.805-.155-1.496-.155-1.143 0-1.806.72-.663.705-.663 2.497 0 1.778.677 2.526.677.734 1.877.734.833 0 1.51-.113z" style="font-weight:700;font-size:14.111px;font-family:Rambla;fill:#008aff"/>
    </g>
  </g>
</svg>